<svg xmlns="http://www.w3.org/2000/svg" viewBox="0 0 400 240" width="400" height="240" role="img" aria-label="gh-reva logo">
  <rect width="100%" height="100%" rx="12" fill="#0d1117"/>
  <rect x="140" y="20" width="120" height="20" fill="#ffeb3b"/>
  <rect x="116" y="40" width="168" height="20" fill="#ffeb3b"/>
  <rect x="92" y="60" width="168" height="20" fill="#ffeb3b"/>
  <rect x="260" y="60" width="24" height="20" fill="#fff176"/>
  <rect x="284" y="60" width="24" height="20" fill="#ffeb3b"/>
  <rect x="68" y="80" width="48" height="20" fill="#ffeb3b"/>
  <rect x="116" y="80" width="24" height="20" fill="#fff176"/>
  <rect x="140" y="80" width="144" height="20" fill="#ffeb3b"/>
  <rect x="284" y="80" width="24" height="20" fill="#fff176"/>
  <rect x="308" y="80" width="24" height="20" fill="#ffeb3b"/>
  <rect x="68" y="100" width="24" height="20" fill="#ffeb3b"/>
  <rect x="92" y="100" width="24" height="20" fill="#fff176"/>
  <rect x="116" y="100" width="48" height="20" fill="#ffeb3b"/>
  <rect x="164" y="100" width="24" height="20" fill="#fff176"/>
  <rect x="188" y="100" width="48" height="20" fill="#ffeb3b"/>
  <rect x="236" y="100" width="24" height="20" fill="#fff176"/>
  <rect x="260" y="100" width="48" height="20" fill="#ffeb3b"/>
  <rect x="308" y="100" width="24" height="20" fill="#fff176"/>
  <rect x="44" y="120" width="24" height="20" fill="#fff176"/>
  <rect x="68" y="120" width="24" height="20" fill="#ffeb3b"/>
  <rect x="92" y="120" width="24" height="20" fill="#fff176"/>
  <rect x="116" y="120" width="24" height="20" fill="#ffeb3b"/>
  <rect x="140" y="120" width="24" height="20" fill="#fff176"/>
  <rect x="164" y="120" width="24" height="20" fill="#ffffe0"/>
  <rect x="188" y="120" width="24" height="20" fill="#fff176"/>
  <rect x="212" y="120" width="48" height="20" fill="#ffeb3b"/>
  <rect x="260" y="120" width="24" height="20" fill="#fff176"/>
  <rect x="284" y="120" width="24" height="20" fill="#ffeb3b"/>
  <rect x="308" y="120" width="48" height="20" fill="#fff176"/>
  <rect x="20" y="140" width="48" height="20" fill="#fff176"/>
  <rect x="68" y="140" width="48" height="20" fill="#ffeb3b"/>
  <rect x="116" y="140" width="48" height="20" fill="#fff176"/>
  <rect x="164" y="140" width="48" height="20" fill="#ffffe0"/>
  <rect x="212" y="140" width="48" height="20" fill="#fff176"/>
  <rect x="260" y="140" width="24" height="20" fill="#ffeb3b"/>
  <rect x="284" y="140" width="24" height="20" fill="#fff176"/>
  <rect x="308" y="140" width="24" height="20" fill="#ffeb3b"/>
  <rect x="332" y="140" width="48" height="20" fill="#fff176"/>
  <rect x="44" y="160" width="24" height="20" fill="#fff176"/>
  <rect x="68" y="160" width="24" height="20" fill="#ffeb3b"/>
  <rect x="92" y="160" width="24" height="20" fill="#fff176"/>
  <rect x="116" y="160" width="24" height="20" fill="#ffffe0"/>
  <rect x="140" y="160" width="24" height="20" fill="#fff176"/>
  <rect x="164" y="160" width="72" height="20" fill="#ffffe0"/>
  <rect x="236" y="160" width="24" height="20" fill="#fff176"/>
  <rect x="260" y="160" width="24" height="20" fill="#ffffe0"/>
  <rect x="284" y="160" width="24" height="20" fill="#fff176"/>
  <rect x="308" y="160" width="24" height="20" fill="#ffeb3b"/>
  <rect x="332" y="160" width="24" height="20" fill="#fff176"/>
  <rect x="68" y="180" width="24" height="20" fill="#ffeb3b"/>
  <rect x="92" y="180" width="24" height="20" fill="#fff176"/>
  <rect x="116" y="180" width="24" height="20" fill="#ffffe0"/>
  <rect x="140" y="180" width="24" height="20" fill="#fff176"/>
  <rect x="164" y="180" width="72" height="20" fill="#ffffe0"/>
  <rect x="236" y="180" width="24" height="20" fill="#fff176"/>
  <rect x="260" y="180" width="24" height="20" fill="#ffffe0"/>
  <rect x="284" y="180" width="24" height="20" fill="#fff176"/>
  <rect x="308" y="180" width="24" height="20" fill="#ffeb3b"/>
  <rect x="44" y="200" width="24" height="20" fill="#ffeb3b"/>
  <rect x="68" y="200" width="24" height="20" fill="#fff176"/>
  <rect x="92" y="200" width="24" height="20" fill="#ffeb3b"/>
  <rect x="116" y="200" width="24" height="20" fill="#fff176"/>
  <rect x="140" y="200" width="120" height="20" fill="#ffffe0"/>
  <rect x="260" y="200" width="24" height="20" fill="#fff176"/>
  <rect x="284" y="200" width="24" height="20" fill="#ffeb3b"/>
  <rect x="308" y="200" width="24" height="20" fill="#fff176"/>
  <rect x="332" y="200" width="24" height="20" fill="#ffeb3b"/>
</svg>
